<svg width="167" height="232" viewBox="0 0 167 232" fill="none" xmlns="http://www.w3.org/2000/svg">
<path d="M5.68799 206.631H128.38V221.757C128.38 225.07 125.694 227.757 122.38 227.757H11.688C8.37428 227.757 5.68799 225.07 5.68799 221.757V206.631Z" fill="#0A0A0A"/>
<path d="M163.319 106.854C163.319 141.946 135.046 170.395 100.169 170.395C86.1625 170.395 77.8981 171.884 67.4251 164.119C64.1975 161.726 39.7374 173.35 37.0198 170.395C33.8974 167 44.0946 138.52 41.7621 134.5C36.3102 125.104 37.02 118.518 37.02 106.854C37.02 71.7606 65.293 43.3121 100.169 43.3121C135.046 43.3121 163.319 71.7606 163.319 106.854Z" fill="#0A0A0A"/>
<path d="M89.1827 102.23L89.3577 113.745C89.3577 114.865 89.346 115.577 89.3227 115.88C89.2994 116.44 88.8327 116.848 87.9227 117.105C87.0127 117.385 86.2077 117.525 85.5077 117.525C84.8077 117.525 84.4577 117.35 84.4577 117C84.4577 116.813 84.516 116.183 84.6327 115.11C85.0527 111.75 85.2627 108.075 85.2627 104.085L85.1227 98.73C84.9827 97.5167 84.341 96.91 83.1977 96.91L82.4977 96.98C82.101 96.98 81.9027 96.8517 81.9027 96.595C81.9027 96.0117 82.871 95.0667 84.8077 93.76C86.7677 92.4533 88.1444 91.8 88.9377 91.8C89.311 91.8 89.4977 92.045 89.4977 92.535C89.4977 93.0017 89.4394 94.2383 89.3227 96.245C89.2294 98.2517 89.1827 100.247 89.1827 102.23ZM100.634 117.35L95.0693 117.035C93.7393 117.035 92.6543 117.222 91.8143 117.595C91.6509 117.665 91.5109 117.7 91.3943 117.7C91.0909 117.7 90.9393 117.315 90.9393 116.545C90.9393 115.752 91.1609 114.818 91.6043 113.745C92.0476 112.648 92.5843 111.633 93.2143 110.7C94.5443 108.67 95.6993 107.13 96.6793 106.08L97.3443 105.38C98.6276 104.003 99.6543 102.65 100.424 101.32C101.218 99.99 101.614 98.5433 101.614 96.98C101.614 95.51 101.043 94.5767 99.8993 94.18C99.6426 94.0867 99.2809 94.04 98.8143 94.04C98.3476 94.0167 97.9043 94.0983 97.4843 94.285C97.0643 94.4717 96.7493 94.705 96.5393 94.985C96.1426 95.5683 95.9326 96.105 95.9093 96.595C95.8626 97.435 96.0493 97.995 96.4693 98.275L96.6443 98.415C97.1343 98.625 97.3793 98.94 97.3793 99.36V99.395C97.3793 100.025 97.1926 100.527 96.8193 100.9C96.4459 101.25 96.0726 101.448 95.6993 101.495L95.1043 101.565C94.4043 101.565 93.8093 101.437 93.3193 101.18C92.8526 100.923 92.5259 100.597 92.3393 100.2C91.9893 99.5 91.8143 98.8 91.8143 98.1C91.8143 96.1167 92.5609 94.565 94.0543 93.445C95.5709 92.325 97.2976 91.765 99.2343 91.765C101.171 91.765 102.804 92.2667 104.134 93.27C105.464 94.2733 106.129 95.6733 106.129 97.47C106.129 99.8967 105.091 102.032 103.014 103.875L102.314 104.47C99.1876 107.13 97.1343 109.3 96.1543 110.98C95.8043 111.563 95.6293 112.053 95.6293 112.45C95.6293 112.707 95.8509 112.87 96.2943 112.94C96.7609 112.987 97.6476 113.01 98.9543 113.01C102.244 113.01 104.379 112.473 105.359 111.4C105.476 111.33 105.593 111.295 105.709 111.295C105.989 111.295 106.129 111.692 106.129 112.485C106.129 113.278 105.966 114.13 105.639 115.04C105.313 115.927 104.834 116.557 104.204 116.93C103.761 117.21 102.571 117.35 100.634 117.35ZM111.71 104.575C111.547 104.575 111.465 104.517 111.465 104.4V104.33C111.535 102.837 111.955 102.09 112.725 102.09H113.425C114.265 102.09 114.988 101.95 115.595 101.67C116.225 101.39 116.703 101.063 117.03 100.69C117.357 100.293 117.613 99.8267 117.8 99.29C118.08 98.52 118.22 97.785 118.22 97.085C118.22 96.3617 118.115 95.79 117.905 95.37C117.695 94.95 117.427 94.6583 117.1 94.495C116.587 94.2383 116.003 94.11 115.35 94.11C114.697 94.11 114.102 94.355 113.565 94.845C113.028 95.335 112.76 95.9883 112.76 96.805C112.76 97.155 112.83 97.505 112.97 97.855C113.11 98.205 113.18 98.415 113.18 98.485C113.18 98.835 112.982 99.1033 112.585 99.29C112.188 99.4533 111.722 99.535 111.185 99.535C110.672 99.535 110.217 99.36 109.82 99.01C109.423 98.66 109.178 98.3217 109.085 97.995C109.015 97.645 108.98 97.295 108.98 96.945C108.98 95.8017 109.377 94.845 110.17 94.075C111.593 92.7217 113.6 92.045 116.19 92.045C116.727 92.045 117.392 92.15 118.185 92.36C119.002 92.5467 119.678 92.8033 120.215 93.13C120.752 93.4333 121.242 93.935 121.685 94.635C122.128 95.335 122.35 96.14 122.35 97.05C122.35 97.9367 122.198 98.73 121.895 99.43C121.615 100.107 121.265 100.643 120.845 101.04C119.958 101.857 119.177 102.347 118.5 102.51L118.08 102.65C117.94 102.743 117.87 102.837 117.87 102.93C117.87 103 117.94 103.047 118.08 103.07C118.243 103.093 118.43 103.14 118.64 103.21C118.873 103.257 119.282 103.432 119.865 103.735C120.448 104.015 120.962 104.377 121.405 104.82C121.848 105.263 122.245 105.917 122.595 106.78C122.968 107.62 123.155 108.693 123.155 110C123.155 111.283 122.875 112.473 122.315 113.57C121.755 114.643 121.067 115.425 120.25 115.915C118.593 116.942 117.123 117.478 115.84 117.525L115 117.56C112.783 117.56 111.068 117.105 109.855 116.195C108.642 115.262 108.035 114.037 108.035 112.52C108.035 111.353 108.35 110.315 108.98 109.405C109.633 108.495 110.497 108.04 111.57 108.04C112.153 108.04 112.678 108.168 113.145 108.425C113.635 108.682 113.88 109.055 113.88 109.545C113.88 109.802 113.775 109.977 113.565 110.07C113.215 110.28 112.947 110.583 112.76 110.98C112.573 111.353 112.468 111.68 112.445 111.96L112.41 112.38C112.41 113.22 112.643 113.908 113.11 114.445C113.577 114.958 114.183 115.215 114.93 115.215C117.357 115.215 118.57 113.22 118.57 109.23C118.57 107.573 118.057 106.372 117.03 105.625C116.003 104.878 114.662 104.505 113.005 104.505C112.865 104.505 112.725 104.505 112.585 104.505L111.78 104.575H111.71Z" fill="white"/>
<path d="M129.219 189.335C127.348 189.335 125.831 190.852 125.831 192.723V202.265H6.77598V161.947C6.77598 160.076 5.25918 158.559 3.38824 158.559C1.5173 158.559 0.000488281 160.076 0.000488281 161.947V219.528C0.000488281 226.378 5.57266 231.95 12.4222 231.95H120.185C127.034 231.95 132.606 226.378 132.606 219.528V192.723C132.606 190.852 131.09 189.335 129.219 189.335ZM120.185 225.174H12.4222C9.30866 225.174 6.77598 222.642 6.77598 219.528V209.041H125.831V219.528C125.831 222.642 123.298 225.174 120.185 225.174Z" fill="white"/>
<path d="M55.9747 12.491C54.1037 12.491 52.5869 14.0078 52.5869 15.8787V15.9257C52.5869 17.7966 54.1037 19.3134 55.9747 19.3134C57.8456 19.3134 59.3624 17.7966 59.3624 15.9257V15.8787C59.3624 14.0078 57.8461 12.491 55.9747 12.491V12.491Z" fill="white"/>
<path d="M76.6458 12.7227L66.4062 12.683C66.4017 12.683 66.3972 12.683 66.3927 12.683C64.528 12.683 63.0126 14.1912 63.0049 16.0576C62.9977 17.9286 64.5086 19.4513 66.3796 19.4585L76.6191 19.4982H76.6327C78.4973 19.4982 80.0128 17.99 80.0204 16.1236C80.0272 14.2526 78.5167 12.73 76.6458 12.7227V12.7227Z" fill="white"/>
<path d="M166.762 107.42C166.762 90.8524 160.731 74.8943 149.778 62.4856C144.812 56.8588 138.999 52.144 132.605 48.4753V13.1013C132.605 6.25173 127.033 0.679565 120.184 0.679565H12.4217C5.57217 0.679565 0 6.25173 0 13.1013V166.461C0 168.332 1.51681 169.849 3.38775 169.849C5.25869 169.849 6.7755 168.332 6.7755 166.461V30.3639H125.83V45.0744C120.135 42.6045 114.092 40.9097 107.856 40.0809C105.998 39.8329 104.298 41.1383 104.051 42.9925C103.805 44.8472 105.108 46.5506 106.963 46.7972C137.192 50.8151 159.987 76.8772 159.987 107.42C159.987 123.681 153.743 138.962 142.406 150.448C138.066 154.844 133.159 158.498 127.845 161.349C127.711 161.409 127.583 161.478 127.459 161.553C118.987 166.02 109.497 168.453 99.612 168.577C89.4361 168.706 79.3465 166.289 70.4078 161.59C69.7068 161.221 68.8982 161.11 68.124 161.276L40.11 167.259C39.6728 167.353 39.3774 167.138 39.241 167.002C39.1045 166.866 38.8904 166.572 38.9839 166.133L44.9676 138.119C45.1329 137.344 45.0218 136.536 44.6532 135.835C39.9537 126.896 37.5376 116.798 37.6659 106.631C37.8542 91.6623 43.4422 77.3542 53.3995 66.3431C63.2773 55.4197 76.779 48.4432 91.4181 46.6978C93.276 46.4765 94.6026 44.7908 94.3813 42.9329C94.1595 41.0751 92.4715 39.7484 90.6164 39.9698C74.352 41.9085 59.3497 49.661 48.3739 61.7986C37.309 74.0342 31.1004 89.9259 30.8908 106.545C30.7535 117.42 33.2392 128.227 38.0891 137.885L32.358 164.718C31.8087 167.289 32.5906 169.934 34.4498 171.793C36.3085 173.653 38.9541 174.435 41.5252 173.885L68.358 168.154C77.7628 172.877 88.2576 175.358 98.8436 175.358C99.1282 175.358 99.4132 175.356 99.6978 175.352C108.845 175.237 117.69 173.34 125.83 169.839V199C125.83 200.871 127.347 202.388 129.218 202.388C131.089 202.388 132.606 200.871 132.606 199V166.461C137.912 163.429 142.831 159.661 147.228 155.207C159.825 142.446 166.762 125.475 166.762 107.42ZM6.7755 23.5884V13.1013C6.7755 9.98774 9.30818 7.45506 12.4217 7.45506H120.184C123.298 7.45506 125.83 9.98774 125.83 13.1013V23.5884H6.7755Z" fill="white"/>
<path fill-rule="evenodd" clip-rule="evenodd" d="M58.359 103.951H63.7127V98.5963C63.7127 97.1625 64.8752 96 66.309 96C67.7429 96 68.9054 97.1625 68.9054 98.5963V103.951H74.2597C75.6935 103.951 76.856 105.113 76.856 106.547C76.856 107.981 75.6935 109.143 74.2597 109.143H68.9054V114.498C68.9054 115.931 67.7429 117.094 66.309 117.094C64.8752 117.094 63.7127 115.931 63.7127 114.498V109.143H58.359C56.9252 109.143 55.7627 107.981 55.7627 106.547C55.7627 105.113 56.9252 103.951 58.359 103.951Z" fill="white"/>
</svg>
