<svg width="167" height="203" viewBox="0 0 167 203" fill="none" xmlns="http://www.w3.org/2000/svg">
<path d="M166.762 107.42C166.762 90.8524 160.731 74.8943 149.778 62.4856C144.812 56.8588 138.999 52.144 132.605 48.4753V13.1013C132.605 6.25173 127.033 0.679565 120.184 0.679565H12.4217C5.57217 0.679565 0 6.25173 0 13.1013V166.461C0 168.332 1.51681 169.849 3.38775 169.849C5.25869 169.849 6.7755 168.332 6.7755 166.461V30.3639H125.83V45.0744C120.135 42.6045 114.092 40.9097 107.856 40.0809C105.998 39.8329 104.298 41.1383 104.051 42.9925C103.805 44.8472 105.108 46.5506 106.963 46.7972C137.192 50.8151 159.987 76.8772 159.987 107.42C159.987 123.681 153.743 138.962 142.406 150.448C138.066 154.844 133.159 158.498 127.845 161.349C127.711 161.409 127.583 161.478 127.459 161.553C118.987 166.02 109.497 168.453 99.612 168.577C89.4361 168.706 79.3465 166.289 70.4078 161.59C69.7068 161.221 68.8982 161.11 68.124 161.276L40.11 167.259C39.6728 167.353 39.3774 167.138 39.241 167.002C39.1045 166.866 38.8904 166.572 38.9839 166.133L44.9676 138.119C45.1329 137.344 45.0218 136.536 44.6532 135.835C39.9537 126.896 37.5376 116.798 37.6659 106.631C37.8542 91.6623 43.4422 77.3542 53.3995 66.3431C63.2773 55.4197 76.779 48.4432 91.4181 46.6978C93.276 46.4765 94.6026 44.7908 94.3813 42.9329C94.1595 41.0751 92.4715 39.7484 90.6164 39.9698C74.352 41.9085 59.3497 49.661 48.3739 61.7986C37.309 74.0342 31.1004 89.9259 30.8908 106.545C30.7535 117.42 33.2392 128.227 38.0891 137.885L32.358 164.718C31.8087 167.289 32.5906 169.934 34.4498 171.793C36.3085 173.653 38.9541 174.435 41.5252 173.885L68.358 168.154C77.7628 172.877 88.2576 175.358 98.8436 175.358C99.1282 175.358 99.4132 175.356 99.6978 175.352C108.845 175.237 117.69 173.34 125.83 169.839V199C125.83 200.871 127.347 202.388 129.218 202.388C131.089 202.388 132.606 200.871 132.606 199V166.461C137.912 163.429 142.831 159.661 147.228 155.207C159.825 142.446 166.762 125.475 166.762 107.42ZM6.7755 23.5884V13.1013C6.7755 9.98774 9.30818 7.45506 12.4217 7.45506H120.184C123.298 7.45506 125.83 9.98774 125.83 13.1013V23.5884H6.7755Z" fill="white"/>
</svg>
