<svg width="133" height="74" viewBox="0 0 133 74" fill="none" xmlns="http://www.w3.org/2000/svg">
<path d="M129.219 31.3354C127.348 31.3354 125.831 32.8522 125.831 34.7232V44.2653H6.77598V3.94707C6.77598 2.07613 5.25918 0.559326 3.38824 0.559326C1.5173 0.559326 0.000488281 2.07613 0.000488281 3.94707V61.5279C0.000488281 68.3775 5.57266 73.9497 12.4222 73.9497H120.185C127.034 73.9497 132.606 68.3775 132.606 61.5279V34.7232C132.606 32.8522 131.09 31.3354 129.219 31.3354ZM120.185 67.1742H12.4222C9.30866 67.1742 6.77598 64.6415 6.77598 61.5279V51.0408H125.831V61.5279C125.831 64.6415 123.298 67.1742 120.185 67.1742Z" fill="white"/>
</svg>
