<svg width="210" height="263" viewBox="0 0 210 263" fill="none" xmlns="http://www.w3.org/2000/svg">
<path d="M122.346 127.881C119.854 127.881 117.418 128.621 115.346 130.009C113.274 131.396 111.659 133.367 110.705 135.674C109.752 137.981 109.502 140.519 109.988 142.968C110.474 145.417 111.674 147.666 113.437 149.432C115.199 151.197 117.444 152.399 119.888 152.886C122.332 153.374 124.866 153.124 127.168 152.168C129.47 151.213 131.438 149.595 132.823 147.519C134.207 145.443 134.946 143.002 134.946 140.505C134.946 137.157 133.619 133.946 131.256 131.579C128.893 129.211 125.688 127.881 122.346 127.881ZM88.2001 127.881C85.7037 127.86 83.2574 128.583 81.1716 129.957C79.0857 131.332 77.4544 133.296 76.4846 135.601C75.5149 137.906 75.2503 140.447 75.7246 142.903C76.1988 145.358 77.3905 147.618 79.1484 149.394C80.9063 151.17 83.1511 152.383 85.5981 152.878C88.0451 153.374 90.5839 153.13 92.8924 152.178C95.2008 151.226 97.1749 149.608 98.5641 147.529C99.9533 145.451 100.695 143.006 100.695 140.505C100.695 137.175 99.3822 133.98 97.0419 131.616C94.7016 129.251 91.5236 127.909 88.2001 127.881ZM156.156 127.881C153.664 127.881 151.228 128.621 149.156 130.009C147.084 131.396 145.469 133.367 144.515 135.674C143.562 137.981 143.312 140.519 143.798 142.968C144.284 145.417 145.484 147.666 147.247 149.432C149.009 151.197 151.254 152.399 153.698 152.886C156.142 153.374 158.676 153.124 160.978 152.168C163.28 151.213 165.248 149.595 166.633 147.519C168.017 145.443 168.756 143.002 168.756 140.505C168.756 138.845 168.43 137.202 167.795 135.669C167.16 134.136 166.23 132.744 165.058 131.571C163.886 130.399 162.495 129.469 160.963 128.836C159.432 128.203 157.792 127.878 156.135 127.881H156.156ZM190.323 127.881C187.831 127.881 185.395 128.621 183.323 130.009C181.251 131.396 179.636 133.367 178.682 135.674C177.729 137.981 177.479 140.519 177.965 142.968C178.451 145.417 179.651 147.666 181.414 149.432C183.176 151.197 185.421 152.399 187.865 152.886C190.309 153.374 192.843 153.124 195.145 152.168C197.447 151.213 199.415 149.595 200.8 147.519C202.184 145.443 202.923 143.002 202.923 140.505C202.923 138.845 202.597 137.202 201.962 135.669C201.327 134.136 200.398 132.744 199.225 131.571C198.053 130.399 196.662 129.469 195.13 128.836C193.599 128.203 191.959 127.878 190.302 127.881H190.323Z" fill="white" stroke="#0A0A0A" stroke-width="9"/>
<path d="M198.366 168.32C197.509 168.01 196.598 167.873 195.688 167.917C194.777 167.96 193.885 168.184 193.061 168.576C192.237 168.967 191.499 169.517 190.888 170.196C190.278 170.874 189.807 171.667 189.504 172.528C187.889 177.001 184.943 180.87 181.063 183.613C177.184 186.355 172.559 187.84 167.811 187.866H42.1891C36.0254 187.822 30.1311 185.329 25.8001 180.934C21.4692 176.54 19.0556 170.603 19.0891 164.428V109.24C19.0556 103.064 21.4692 97.1275 25.8001 92.7332C30.1311 88.3388 36.0254 85.8457 42.1891 85.8012H167.811C173.975 85.8457 179.869 88.3388 184.2 92.7332C188.531 97.1275 190.945 103.064 190.911 109.24C191.009 111.012 191.78 112.68 193.067 113.901C194.354 115.121 196.059 115.801 197.831 115.801C199.603 115.801 201.307 115.121 202.594 113.901C203.881 112.68 204.653 111.012 204.75 109.24C204.778 99.3885 200.905 89.9285 193.98 82.935C187.055 75.9416 177.644 71.9859 167.811 71.9358H155.211V60.7846C155.211 32.1071 135.45 8.75269 111.111 8.75269H95.4241C71.1481 8.75269 51.3241 32.1071 51.3241 60.7846V71.9358H42.1891C32.3568 71.9859 22.9457 75.9416 16.0207 82.935C9.09566 89.9285 5.22222 99.3885 5.25015 109.24V164.343C5.22222 174.195 9.09566 183.655 16.0207 190.648C22.9457 197.642 32.3568 201.597 42.1891 201.647H167.811C175.398 201.614 182.791 199.249 188.995 194.874C195.198 190.498 199.913 184.322 202.503 177.178C203.125 175.454 203.039 173.552 202.263 171.892C201.487 170.231 200.086 168.947 198.366 168.32ZM65.2261 60.8056C65.2261 39.7656 78.7711 22.6391 95.4241 22.6391H111.3C127.953 22.6391 141.498 39.7656 141.498 60.8056V71.9569H65.2261V60.8056Z" fill="white" stroke="#0A0A0A" stroke-width="9"/>
</svg>
