<svg width="193" height="193" viewBox="0 0 193 193" fill="none" xmlns="http://www.w3.org/2000/svg">
<rect x="4.02075" y="120.625" width="184.958" height="71.3698" rx="10" fill="#0A0A0A"/>
<path fill-rule="evenodd" clip-rule="evenodd" d="M15.3059 116.211H177.694C186.132 116.211 193 123.079 193 131.517V177.694C193 186.132 186.132 193 177.694 193H15.3059C6.86799 193 0 186.132 0 177.694V131.517C0 123.079 6.86799 116.211 15.3059 116.211ZM177.694 185.477C181.987 185.477 185.477 181.987 185.477 177.694V131.517C185.477 127.224 181.987 123.735 177.694 123.735H15.3059C11.0128 123.735 7.52336 127.224 7.52336 131.517V177.694C7.52336 181.987 11.0128 185.477 15.3059 185.477H177.694Z" fill="white"/>
<path fill-rule="evenodd" clip-rule="evenodd" d="M110.704 145.722L101.82 154.606L110.704 163.49C112.173 164.959 112.173 167.341 110.704 168.81C109.235 170.279 106.853 170.279 105.384 168.81L96.4999 159.926L87.6158 168.81C86.1468 170.279 83.7648 170.278 82.296 168.81C80.827 167.341 80.827 164.959 82.296 163.49L91.1802 154.606L82.2957 145.721C80.8266 144.252 80.8266 141.871 82.2957 140.402C83.7648 138.932 86.1468 138.933 87.6154 140.402L96.4999 149.286L105.384 140.402C106.853 138.932 109.235 138.933 110.704 140.402C112.173 141.871 112.173 144.253 110.704 145.722Z" fill="white"/>
<path fill-rule="evenodd" clip-rule="evenodd" d="M58.4333 145.722L49.5491 154.606L58.4336 163.49C59.9027 164.959 59.9027 167.341 58.4337 168.81C56.9647 170.279 54.5827 170.279 53.1139 168.81L44.2294 159.926L35.3453 168.81C33.8763 170.279 31.4943 170.278 30.0255 168.81C28.5565 167.341 28.5565 164.959 30.0255 163.49L38.9097 154.606L30.0251 145.721C28.5561 144.252 28.5561 141.871 30.0251 140.402C31.4943 138.932 33.8763 138.933 35.3449 140.402L44.2294 149.286L53.1136 140.402C54.5827 138.932 56.9648 138.933 58.4334 140.402C59.9027 141.871 59.9026 144.253 58.4333 145.722Z" fill="white"/>
<path fill-rule="evenodd" clip-rule="evenodd" d="M168.425 145.722L159.541 154.606L168.425 163.49C169.894 164.959 169.894 167.341 168.425 168.81C166.956 170.279 164.574 170.279 163.106 168.81L154.221 159.926L145.337 168.81C143.868 170.279 141.486 170.278 140.017 168.81C138.548 167.341 138.548 164.959 140.017 163.49L148.901 154.606L140.017 145.721C138.548 144.252 138.548 141.871 140.017 140.402C141.486 138.932 143.868 138.933 145.337 140.402L154.221 149.286L163.105 140.402C164.574 138.932 166.956 138.933 168.425 140.402C169.894 141.871 169.894 144.253 168.425 145.722Z" fill="white"/>
<path fill-rule="evenodd" clip-rule="evenodd" d="M123.35 26.8501V47.3489L124.688 47.8235C130.632 49.9316 134.894 55.6079 134.894 62.2522V85.3406C134.894 93.7785 128.026 100.646 119.588 100.646H73.4113C64.9735 100.646 58.1055 93.7785 58.1055 85.3406V62.2522C58.1055 55.6079 62.3673 49.9316 68.3112 47.8235L69.6497 47.3489V26.8501C69.6497 12.0467 81.6964 0 96.4997 0C111.303 0 123.35 12.0467 123.35 26.8501ZM77.173 46.9464H115.826V26.8501C115.826 16.1915 107.158 7.52336 96.4997 7.52336C85.8412 7.52336 77.173 16.1915 77.173 26.8501V46.9464ZM119.588 93.1231C123.881 93.1231 127.371 89.6337 127.371 85.3406V62.2522C127.371 57.9592 123.881 54.4697 119.588 54.4697H73.4113C69.1183 54.4697 65.6288 57.9592 65.6288 62.2522V85.3406C65.6288 89.6337 69.1183 93.1231 73.4113 93.1231H119.588Z" fill="white"/>
</svg>
